<?xml version="1.0" standalone="no"?><!DOCTYPE svg PUBLIC "-//W3C//DTD SVG 1.1//EN" "http://www.w3.org/Graphics/SVG/1.1/DTD/svg11.dtd"><svg t="1560584820532" class="icon" style="" viewBox="0 0 1024 1024" version="1.1" xmlns="http://www.w3.org/2000/svg" p-id="7414" xmlns:xlink="http://www.w3.org/1999/xlink" width="200" height="200"><defs><style type="text/css"></style></defs><path d="M576 557.7088V934.4H448V560.4416l-43.8912 43.8848L313.6 513.8176l199.1232-199.1168 0.64 0.64 0.64-0.64 199.1232 199.1168-90.5088 90.5088L576 557.7088zM704 678.4h32c88.3648 0 160-71.6352 160-160s-71.6352-160-160-160c-20.5184 0-40.128 3.8592-58.1568 10.8992C670.336 270.1248 587.4944 192 486.4 192c-106.0416 0-192 85.9584-192 192 0 15.9104 1.9328 31.3728 5.5872 46.1568A127.7504 127.7504 0 0 0 256 422.4c-70.6944 0-128 57.3056-128 128s57.3056 128 128 128h64v128H256c-141.3824 0-256-114.6176-256-256 0-113.3184 73.632-209.4464 175.6608-243.136C210.0352 167.584 336.1216 64 486.4 64c121.312 0 227.552 67.712 281.7728 168.1792C912.0896 248.1792 1024 370.2208 1024 518.4c0 159.0592-128.9408 288-288 288h-32v-128z" p-id="7415"></path></svg>